<!-- Generator: Adobe Illustrator 19.0.0, SVG Export Plug-In  -->
<svg version="1.1"
	 xmlns="http://www.w3.org/2000/svg" xmlns:xlink="http://www.w3.org/1999/xlink" xmlns:a="http://ns.adobe.com/AdobeSVGViewerExtensions/3.0/"
	 x="0px" y="0px" width="109.1px" height="109.1px" viewBox="0 0 109.1 109.1" style="enable-background:new 0 0 109.1 109.1;"
	 xml:space="preserve">
<style type="text/css">
	.st0{fill:#FC6438;}
	.st1{fill:#ef5f33;}
	.st2{fill:#CCCCCC;}
	.st3{fill:#FFFFFF;}
	.st4{fill:#D5D8DC;}
</style>
<defs>
</defs>
<g id="_x39__1_">
	<circle id="color_1_" class="st0" cx="54.5" cy="54.5" r="54.5"/>
	<path id="shadow_1_" class="st1" d="M107.2,64c-0.2-0.3-0.4-0.5-0.6-0.6c-0.2-0.3-0.4-0.5-0.6-0.6c-0.2-0.3-0.4-0.5-0.6-0.6
		c-0.2-0.3-0.4-0.5-0.6-0.6c-0.2-0.3-0.4-0.5-0.6-0.6c-0.2-0.3-0.4-0.5-0.6-0.6c-0.2-0.3-0.4-0.5-0.6-0.6c-0.2-0.3-0.4-0.5-0.6-0.6
		c-0.2-0.3-0.4-0.5-0.6-0.6c-0.2-0.3-0.4-0.5-0.6-0.6c-0.2-0.3-0.4-0.5-0.6-0.6c-0.2-0.3-0.4-0.5-0.6-0.6c-0.2-0.3-0.4-0.5-0.6-0.6
		c-0.2-0.3-0.4-0.5-0.6-0.6c-0.2-0.3-0.4-0.5-0.6-0.6c-0.2-0.3-0.4-0.5-0.6-0.6c-0.2-0.3-0.4-0.5-0.6-0.6c-0.2-0.3-0.4-0.5-0.6-0.6
		c-0.2-0.3-0.4-0.5-0.6-0.6c-0.2-0.3-0.4-0.5-0.6-0.6c-0.2-0.3-0.4-0.5-0.6-0.6c-0.2-0.3-0.4-0.5-0.6-0.6c-0.2-0.3-0.4-0.5-0.6-0.6
		c-0.2-0.3-0.4-0.5-0.6-0.6c-0.2-0.3-0.4-0.5-0.6-0.6c-0.4-0.6-1.1-1-1.9-0.8l-2.3,0.5c-0.2-0.2-0.4-0.4-0.6-0.6
		c-0.2-0.2-0.4-0.4-0.6-0.6c-0.2-0.2-0.4-0.4-0.6-0.6c-0.2-0.2-0.4-0.4-0.6-0.6c-0.2-0.2-0.4-0.4-0.6-0.6c-0.2-0.2-0.4-0.4-0.6-0.6
		c-0.2-0.2-0.4-0.4-0.6-0.6c-0.2-0.2-0.4-0.4-0.6-0.6c-0.2-0.2-0.4-0.4-0.6-0.6c-2.1-2.4-8.5-4.5-17-5.4c-0.2-0.2-0.4-0.4-0.6-0.6
		c-0.2-0.2-0.4-0.4-0.6-0.6c-0.2-0.2-0.4-0.4-0.6-0.6c-0.2-0.2-0.4-0.4-0.6-0.6c-0.2-0.2-0.4-0.4-0.6-0.6c-0.2-0.2-0.4-0.4-0.6-0.6
		c-0.2-0.2-0.4-0.4-0.6-0.6c-0.2-0.2-0.4-0.4-0.6-0.6c-0.2-0.2-0.4-0.4-0.6-0.6c-0.8-1.2-3.2-2-5.9-2c-3.5,0-6.3,1.3-6.3,3
		c0,0.6,0.4,1.1,1,1.6c0.2,0.2,0.4,0.4,0.6,0.6c0.2,0.2,0.4,0.4,0.6,0.6c0.2,0.2,0.3,0.4,0.6,0.6v0.5c-14.4,0.5-25.6,3.7-25.6,7.7
		h0.7c0,0,0,0.1,0,0.1h-0.7v4.5l-6-1.3c-0.9-0.2-1.9,0.4-2.1,1.3l-0.4,2c-0.2,0.8,0.2,1.5,0.8,1.9c0.1,0.2,0.4,0.5,0.6,0.6
		c0.1,0.2,0.4,0.5,0.6,0.6c0.1,0.2,0.4,0.5,0.6,0.6c0.1,0.2,0.4,0.5,0.6,0.6c0.1,0.2,0.4,0.5,0.6,0.6c0.1,0.2,0.4,0.5,0.6,0.6
		c0.1,0.2,0.4,0.5,0.6,0.6c0.1,0.2,0.4,0.5,0.6,0.6c0.1,0.2,0.4,0.5,0.6,0.6c0.1,0.2,0.4,0.5,0.6,0.6c0.1,0.2,0.4,0.5,0.6,0.6
		c0.1,0.2,0.4,0.5,0.6,0.6c0.1,0.2,0.3,0.4,0.5,0.5v12.9c0,1.4,0.7,2.7,1.8,3.6c0.2,0.2,0.4,0.4,0.6,0.6c0.2,0.2,0.4,0.4,0.6,0.6
		c0.2,0.2,0.4,0.4,0.6,0.6c0.2,0.2,0.4,0.4,0.6,0.6c0.2,0.2,0.4,0.4,0.6,0.6c0.2,0.2,0.4,0.4,0.6,0.6c0.2,0.2,0.4,0.4,0.6,0.6
		c0.2,0.2,0.4,0.4,0.6,0.6c0.2,0.2,0.4,0.4,0.6,0.6c0.2,0.2,0.4,0.4,0.6,0.6c0.2,0.2,0.4,0.4,0.6,0.6c0.2,0.2,0.4,0.4,0.6,0.6
		c0.2,0.2,0.4,0.4,0.6,0.6c0.2,0.2,0.4,0.4,0.6,0.6c0.2,0.2,0.4,0.4,0.6,0.6c0.2,0.2,0.4,0.4,0.6,0.6c0.2,0.2,0.4,0.4,0.6,0.6
		c0.2,0.2,0.4,0.4,0.6,0.6c0.2,0.2,0.4,0.4,0.6,0.6c0.2,0.2,0.4,0.4,0.6,0.6c0.2,0.2,0.4,0.4,0.6,0.6c0.2,0.2,0.4,0.4,0.6,0.6
		c0.2,0.2,0.4,0.4,0.6,0.6c0.2,0.2,0.4,0.4,0.6,0.6c0.2,0.2,0.4,0.4,0.6,0.6c0.2,0.2,0.4,0.4,0.6,0.6c0.2,0.2,0.4,0.4,0.6,0.6
		c0.2,0.2,0.4,0.4,0.6,0.6c0.2,0.2,0.4,0.4,0.6,0.6c0.2,0.2,0.4,0.4,0.6,0.6c0.2,0.2,0.4,0.4,0.6,0.6c0.2,0.2,0.4,0.4,0.6,0.6
		c0.2,0.2,0.4,0.4,0.6,0.6c0.2,0.2,0.4,0.4,0.6,0.6c0.2,0.2,0.4,0.4,0.6,0.6c0.2,0.2,0.4,0.4,0.6,0.6c0.2,0.2,0.4,0.4,0.6,0.6
		c0.2,0.2,0.4,0.4,0.6,0.6c0.2,0.2,0.4,0.4,0.6,0.6c0.2,0.2,0.4,0.4,0.6,0.6c0.2,0.2,0.4,0.4,0.6,0.6c0.2,0.2,0.4,0.4,0.6,0.6
		c0.2,0.2,0.4,0.4,0.6,0.6c0.2,0.2,0.4,0.4,0.6,0.6c0.2,0.2,0.4,0.4,0.6,0.6c0.2,0.2,0.4,0.4,0.6,0.6c0.2,0.2,0.4,0.4,0.6,0.6
		c0.2,0.2,0.4,0.4,0.6,0.6c0.2,0.2,0.4,0.4,0.6,0.6c0.2,0.2,0.4,0.4,0.6,0.6c0.2,0.2,0.4,0.4,0.6,0.6c0.2,0.2,0.4,0.4,0.6,0.6
		c25-1.7,45.3-20.1,49.9-44.1c-0.1-0.1-0.2-0.2-0.3-0.2C107.6,64.3,107.4,64.1,107.2,64z"/>
	<g id="icon_1_">
		<rect x="50.6" y="34.5" class="st2" width="7" height="3.7"/>
		<g>
			<path class="st3" d="M92.7,51.3c0.2,0.9-0.4,1.9-1.3,2.1l-7.8,1.8c-0.9,0.2-1.9-0.4-2.1-1.3l-0.4-2c-0.2-0.9,0.4-1.9,1.3-2.1
				l7.8-1.8c0.9-0.2,1.9,0.4,2.1,1.3L92.7,51.3z"/>
			<path class="st3" d="M16.4,51.3c-0.2,0.9,0.4,1.9,1.3,2.1l7.8,1.8c0.9,0.2,1.9-0.4,2.1-1.3l0.4-2c0.2-0.9-0.4-1.9-1.3-2.1
				L18.9,48c-0.9-0.2-1.9,0.4-2.1,1.3L16.4,51.3z"/>
		</g>
		<g>
			<path class="st3" d="M83.2,44.9v29c0,2.8-2.6,5-5.8,5H30.8c-3.2,0-5.8-2.2-5.8-5v-29"/>
		</g>
		<g>
			<path class="st4" d="M24.9,44.8c0-4.3,13-7.7,29.1-7.7c16.1,0,29.1,3.5,29.1,7.7H24.9z"/>
		</g>
		<ellipse class="st3" cx="54.1" cy="33.2" rx="6.3" ry="3"/>
	</g>
</g>
</svg>
