<!-- Generator: Adobe Illustrator 19.0.0, SVG Export Plug-In  -->
<svg version="1.1"
	 xmlns="http://www.w3.org/2000/svg" xmlns:xlink="http://www.w3.org/1999/xlink" xmlns:a="http://ns.adobe.com/AdobeSVGViewerExtensions/3.0/"
	 x="0px" y="0px" width="109.1px" height="109.1px" viewBox="0 0 109.1 109.1" style="enable-background:new 0 0 109.1 109.1;"
	 xml:space="preserve">
<style type="text/css">
	.st0{fill:#FECD46;}
	.st1{fill:#f1c240;}
	.st2{fill:#FFFFFF;}
</style>
<defs>
</defs>
<g id="_x37__1_">
	<circle id="color_1_" class="st0" cx="54.5" cy="54.5" r="54.5"/>
	<path id="shadow_1_" class="st1" d="M108.2,57.1c-0.2-0.2-0.4-0.4-0.6-0.6c-0.2-0.2-0.4-0.4-0.6-0.6c-0.2-0.2-0.4-0.4-0.6-0.6
		c-0.2-0.2-0.4-0.4-0.6-0.6c-0.2-0.2-0.4-0.4-0.6-0.6c-0.2-0.2-0.4-0.4-0.6-0.6c-0.2-0.2-0.4-0.4-0.6-0.6c-0.2-0.2-0.4-0.4-0.6-0.6
		c-0.2-0.2-0.4-0.4-0.6-0.6c-0.2-0.2-0.4-0.4-0.6-0.6c-0.2-0.2-0.4-0.4-0.6-0.6c-0.2-0.2-0.4-0.4-0.6-0.6c-0.2-0.2-0.4-0.4-0.6-0.6
		c-0.2-0.2-0.4-0.4-0.6-0.6c-0.2-0.2-0.4-0.4-0.6-0.6c-0.2-0.2-0.4-0.4-0.6-0.6c-0.2-0.2-0.4-0.4-0.6-0.6c-0.2-0.2-0.4-0.4-0.6-0.6
		c-0.2-0.2-0.4-0.4-0.6-0.6c-0.2-0.2-0.4-0.4-0.6-0.6c-0.2-0.2-0.4-0.4-0.6-0.6c-0.2-0.2-0.4-0.4-0.6-0.6c-0.2-0.2-0.4-0.4-0.6-0.6
		c-0.4-0.4-0.8-0.8-1.2-1.1c-0.1-0.1-0.2-0.2-0.3-0.4c-0.1-0.1-0.2-0.2-0.3-0.3c-0.1-0.1-0.2-0.2-0.2-0.2c-0.1-0.2-0.3-0.3-0.4-0.4
		c-0.1-0.1-0.1-0.1-0.2-0.2c-0.2-0.2-0.3-0.4-0.5-0.5c0,0-0.1-0.1-0.1-0.1c-0.2-0.2-0.3-0.4-0.5-0.6c0,0-0.1-0.1-0.1-0.1
		c-0.2-0.2-0.4-0.4-0.6-0.6c0,0,0,0,0,0c-0.2-0.2-0.4-0.5-0.6-0.7c0,0,0,0,0,0c-0.2-0.2-0.4-0.4-0.6-0.6c-0.2-0.2-0.4-0.4-0.6-0.6
		c-0.2-0.2-0.4-0.4-0.6-0.6c-0.2-0.2-0.4-0.5-0.6-0.7c-0.2-0.3-0.4-0.5-0.7-0.7c-0.2-0.2-0.4-0.4-0.6-0.6c-0.2-0.2-0.4-0.4-0.6-0.6
		c-0.2-0.2-0.4-0.4-0.6-0.6c-0.2-0.2-0.4-0.4-0.6-0.6c-0.2-0.2-0.4-0.4-0.6-0.7c-0.2-0.2-0.4-0.4-0.6-0.6c-0.2-0.2-0.4-0.5-0.6-0.7
		c-0.2-0.2-0.4-0.5-0.6-0.7c-0.2-0.2-0.4-0.4-0.6-0.7c-0.2-0.2-0.4-0.5-0.6-0.7c-0.2-0.2-0.4-0.5-0.6-0.7c-0.3-0.3-0.6-0.6-0.9-0.9
		c-0.1-0.1-0.2-0.2-0.2-0.3c-0.2-0.2-0.4-0.5-0.6-0.7c-0.2-0.2-0.4-0.5-0.6-0.7c-0.4-0.6-0.9-1-1.5-1.4c-2-1.4-4.6-1.7-7.3-1.7
		c-2.8,0-5.3,0.3-7.3,1.7c-1.9,1.3-3.1,3.6-3.1,7.1c-0.1-0.1-0.3-0.3-0.4-0.4c-0.2-0.2-0.4-0.4-0.6-0.6c-0.2-0.2-0.4-0.4-0.6-0.6
		c-0.2-0.2-0.4-0.4-0.6-0.6c-0.2-0.2-0.4-0.4-0.6-0.6c-0.2-0.2-0.4-0.4-0.6-0.6c-0.2-0.2-0.4-0.4-0.6-0.6c-0.2-0.2-0.4-0.4-0.6-0.6
		c-0.2-0.3-0.5-0.5-0.8-0.8c-0.1-0.1-0.2-0.2-0.4-0.3c-0.2-0.2-0.4-0.4-0.6-0.6c-0.2-0.2-0.4-0.4-0.6-0.6c-0.7-0.9-1.8-1.5-3.1-1.5
		h-14c-2.2,0-4,1.8-4,4v17.2c0,1.3,0.6,2.4,1.5,3.1c0.2,0.2,0.4,0.4,0.6,0.6c0.2,0.2,0.4,0.4,0.6,0.6c0.3,0.3,0.5,0.6,0.9,0.8
		c0.1,0.1,0.3,0.3,0.4,0.4c0.2,0.2,0.4,0.4,0.6,0.6c0.2,0.2,0.4,0.4,0.6,0.6c0.2,0.2,0.4,0.4,0.6,0.6c0.2,0.2,0.4,0.4,0.6,0.6
		c0.2,0.2,0.4,0.4,0.6,0.6c0.2,0.2,0.4,0.4,0.6,0.6c0.2,0.2,0.4,0.4,0.6,0.6c0,0.1,0.1,0.1,0.1,0.2c0,3.7-0.1,11.4-0.4,14.3
		c-0.3,3.4-1.3,10-1.3,14.6c0,2.3,0.7,3.6,1.6,4.3c0.2,0.2,0.4,0.4,0.6,0.6c0.2,0.2,0.4,0.4,0.6,0.6c0.3,0.3,0.5,0.6,0.8,0.8
		c0.1,0.2,0.3,0.3,0.5,0.4c0.2,0.2,0.4,0.4,0.6,0.6c0.2,0.2,0.4,0.4,0.6,0.6c0.2,0.2,0.4,0.4,0.6,0.6c0.2,0.2,0.4,0.4,0.6,0.6
		c0.2,0.2,0.4,0.4,0.6,0.6c0.2,0.2,0.4,0.4,0.6,0.6c0.2,0.2,0.4,0.4,0.6,0.6c0.2,0.2,0.4,0.4,0.6,0.6c0.2,0.2,0.4,0.4,0.6,0.6
		c0.2,0.2,0.4,0.4,0.6,0.6c0.2,0.2,0.4,0.4,0.6,0.6c0.2,0.2,0.4,0.4,0.6,0.6c0.2,0.2,0.4,0.4,0.6,0.6c0.2,0.2,0.4,0.4,0.6,0.6
		c0.2,0.2,0.4,0.4,0.6,0.6c0.2,0.2,0.4,0.4,0.6,0.6c0.2,0.2,0.4,0.4,0.6,0.6c0.2,0.2,0.4,0.4,0.6,0.6c0.2,0.2,0.4,0.4,0.6,0.6
		c0.2,0.2,0.4,0.4,0.6,0.6c0.2,0.2,0.4,0.4,0.6,0.6c0.2,0.2,0.4,0.4,0.6,0.6c0.2,0.2,0.4,0.4,0.6,0.6c0.2,0.2,0.4,0.4,0.6,0.6
		c0.2,0.2,0.4,0.4,0.6,0.6c0.2,0.2,0.4,0.4,0.6,0.6c0.2,0.2,0.4,0.4,0.6,0.6c0.2,0.2,0.4,0.4,0.6,0.6c0.2,0.2,0.4,0.4,0.6,0.6
		c0.2,0.2,0.4,0.4,0.6,0.6c0.2,0.2,0.4,0.4,0.6,0.6c0.2,0.2,0.4,0.4,0.6,0.6c0.2,0.2,0.4,0.4,0.6,0.6c0,0,0,0,0,0
		c25.9-3.2,46.2-24.5,47.8-50.8c0,0-0.1-0.1-0.1-0.1C108.7,57.5,108.4,57.3,108.2,57.1z"/>
	<g id="icon_1_">
		<g>
			<path class="st2" d="M51.9,26.3v17.2c0,2.2-1.8,4-4,4h-3c-0.5,0.8-1.5,2.6-1.5,4.1c0,2,0.1,12.5,0.4,15.9
				c0.3,3.4,1.3,10,1.3,14.6c0,4.4-2.7,5.1-4.2,5.1c-1.5,0-4.2-0.7-4.2-5.1c0-4.6,1-11.1,1.3-14.6c0.3-3.4,0.4-13.9,0.4-15.9
				c0-1.5-1-3.3-1.5-4.1h-3c-2.2,0-4-1.8-4-4V26.3c0-2.2,1.8-4,4-4h14C50.2,22.3,51.9,24.1,51.9,26.3z M35,26.8
				c-0.6,0-1.1,0.5-1.1,1.1V42c0,0.6,0.5,1.1,1.1,1.1c0.6,0,1.1-0.5,1.1-1.1V27.9C36.1,27.3,35.6,26.8,35,26.8z M41,26.8
				c-0.6,0-1.1,0.5-1.1,1.1V42c0,0.6,0.5,1.1,1.1,1.1c0.6,0,1.1-0.5,1.1-1.1V27.9C42.1,27.3,41.6,26.8,41,26.8z M46.9,26.8
				c-0.6,0-1.1,0.5-1.1,1.1V42c0,0.6,0.5,1.1,1.1,1.1c0.6,0,1.1-0.5,1.1-1.1V27.9C48,27.3,47.5,26.8,46.9,26.8z"/>
			<g>
				<path class="st2" d="M76,23.5c-2-1.4-4.6-1.7-7.3-1.7c-2.8,0-5.3,0.3-7.3,1.7c-2,1.4-3.2,3.8-3.2,7.4c0,3.7,1.1,8.1,3,11.6
					c1.1,2.1,2.5,3.9,4,5.1c0.5,0.9,1.1,2.4,1.1,3.7c0,2,0,12.6-0.3,16.1c-0.3,3.5-1.2,10.1-1.2,14.7c0,4.5,2.5,5.1,3.9,5.1
					c1.4,0,3.9-0.7,3.9-5.1c0-4.6-0.9-11.3-1.2-14.7C71,63.9,71,53.3,71,51.3c0-1.3,0.7-2.8,1.1-3.7c1.6-1.1,2.9-3,4-5.1
					c1.8-3.5,2.9-7.9,2.9-11.6C79.1,27.3,78,24.9,76,23.5z M62.3,41.9c-1.7-3.3-2.8-7.6-2.8-11c0-3.4,1-5.3,2.6-6.3
					c0.2-0.2,0.5-0.3,0.7-0.4c-1.1,1.4-1.7,3.6-1.7,6.8c0,3.6,0.8,8,2.1,11.5c0.3,0.8,0.6,1.6,1,2.4C63.5,44,62.9,43,62.3,41.9z
					 M66.5,46.1c-2.3-2.9-4.1-10-4.1-15.1c0-3.5,0.8-5.4,1.8-6.4c0.5-0.5,1-0.8,1.6-1c0,0.1-0.1,0.1-0.1,0.2c-0.7,1.4-1,3.6-1,7.2
					c0,3.6,0.4,7.9,1,11.4c0.3,1.5,0.6,2.8,0.9,3.9C66.6,46.1,66.5,46.1,66.5,46.1z M69.3,46.2c-0.2,0.5-1,0.7-1.3,0
					c-0.1-0.3-0.2-0.6-0.3-0.9c-1-3.4-1.7-9.6-1.7-14.4c0-3.5,0.4-5.5,0.9-6.6c0.5-1,1-1.2,1.7-1.2c0.7,0,1.2,0.2,1.7,1.2
					c0.5,1.1,0.9,3.1,0.9,6.6c0,3.5-0.4,7.8-0.9,11.2C70,43.8,69.7,45.2,69.3,46.2z M70.8,46.1c0,0-0.1,0.1-0.1,0.1
					c0.4-1.4,0.8-3.2,1.1-5.2c0.5-3.2,0.8-6.9,0.8-10.1c0-3.6-0.4-5.8-1-7.2c0-0.1-0.1-0.2-0.1-0.2c0.6,0.2,1.2,0.5,1.6,1
					c1.1,1,1.8,3,1.8,6.4c0,3.5-0.8,7.7-2,11.1C72.3,43.7,71.6,45.1,70.8,46.1z M75,41.9c-0.6,1.1-1.2,2.1-1.9,2.9
					c1.9-3.7,3.1-9.4,3.1-13.9c0-3.2-0.6-5.3-1.7-6.8c0.2,0.1,0.5,0.3,0.7,0.4c1.6,1.1,2.6,2.9,2.6,6.3C77.8,34.3,76.7,38.6,75,41.9
					z"/>
			</g>
		</g>
	</g>
</g>
</svg>
