<!-- Generator: Adobe Illustrator 19.0.0, SVG Export Plug-In  -->
<svg version="1.1"
	 xmlns="http://www.w3.org/2000/svg" xmlns:xlink="http://www.w3.org/1999/xlink" xmlns:a="http://ns.adobe.com/AdobeSVGViewerExtensions/3.0/"
	 x="0px" y="0px" width="109.1px" height="109.1px" viewBox="0 0 109.1 109.1" style="enable-background:new 0 0 109.1 109.1;"
	 xml:space="preserve">
<style type="text/css">
	.st0{fill:#33BFC4;}
	.st1{fill:#30b4b9;}
	.st2{fill:#FFFFFF;}
	.st3{fill:url(#SVGID_1_);}
	.st4{fill:#FC6438;}
	.st5{fill:url(#SVGID_2_);}
</style>
<defs>
</defs>
<g id="_x33__2_">
	<circle id="color_1_" class="st0" cx="54.5" cy="54.5" r="54.5"/>
	<path id="shadow_1_" class="st1" d="M108,56.6c-0.2-0.2-0.4-0.4-0.6-0.6c-0.2-0.2-0.4-0.4-0.6-0.6c-0.2-0.2-0.4-0.4-0.6-0.6
		c-0.2-0.2-0.4-0.4-0.6-0.6c-0.2-0.2-0.4-0.4-0.6-0.6c-0.2-0.2-0.4-0.4-0.6-0.6c-0.2-0.2-0.4-0.4-0.6-0.6c-0.2-0.2-0.4-0.4-0.6-0.6
		c-0.2-0.2-0.4-0.4-0.6-0.6c-0.2-0.2-0.4-0.4-0.6-0.6c-0.2-0.2-0.4-0.4-0.6-0.6c-0.2-0.2-0.4-0.4-0.6-0.6c-0.2-0.2-0.4-0.4-0.6-0.6
		c-0.2-0.2-0.4-0.4-0.6-0.6c-0.2-0.2-0.4-0.4-0.6-0.6c-0.2-0.2-0.4-0.4-0.6-0.6c-0.2-0.2-0.4-0.4-0.6-0.6c-0.2-0.2-0.4-0.4-0.6-0.6
		c-0.2-0.2-0.4-0.4-0.6-0.6c-0.2-0.2-0.4-0.4-0.6-0.6c-0.2-0.2-0.4-0.4-0.6-0.6c-0.2-0.2-0.4-0.4-0.6-0.6c-0.2-0.2-0.4-0.4-0.6-0.6
		c-0.2-0.2-0.4-0.4-0.6-0.6c-0.2-0.2-0.4-0.4-0.6-0.6c-0.2-0.2-0.4-0.4-0.6-0.6c-0.2-0.2-0.4-0.4-0.6-0.6c-0.2-0.2-0.4-0.4-0.6-0.6
		c-0.2-0.2-0.4-0.4-0.6-0.6c-0.2-0.2-0.4-0.4-0.6-0.6c-0.2-0.2-0.4-0.4-0.6-0.6c-0.2-0.2-0.4-0.4-0.6-0.6c-0.2-0.2-0.4-0.4-0.6-0.6
		c-0.2-0.2-0.4-0.4-0.6-0.6c-0.2-0.2-0.4-0.4-0.6-0.6c-0.2-0.2-0.4-0.4-0.6-0.6c-0.2-0.2-0.4-0.4-0.6-0.6c-0.2-0.2-0.4-0.4-0.6-0.6
		c-0.2-0.2-0.4-0.4-0.6-0.6c-0.2-0.2-0.4-0.4-0.6-0.6c-0.2-0.2-0.4-0.4-0.6-0.6c-4.2-4.5-11-2.9-14.7-1.6c0,0,0,0-0.1-0.1
		c-0.2-0.2-0.4-0.4-0.6-0.6c-0.2-0.2-0.4-0.4-0.6-0.6c-0.2-0.2-0.4-0.4-0.6-0.6c-0.2-0.2-0.4-0.4-0.6-0.6c-0.2-0.2-0.4-0.4-0.6-0.6
		c-0.2-0.2-0.4-0.4-0.6-0.6c-0.2-0.2-0.4-0.4-0.6-0.6c-0.2-0.2-0.4-0.4-0.6-0.6c-2.3-2.5-5.9-4-9.7-4h0c-6.2,0-12.2,4.3-12.1,10
		c0,0-17.5-9-20.2,7.8c-1.2,7.3,0.8,11.7,3.6,14.3c0.2,0.2,0.4,0.4,0.6,0.6c0.2,0.2,0.4,0.4,0.6,0.6c0.2,0.2,0.4,0.4,0.6,0.6
		c0.2,0.2,0.4,0.4,0.6,0.6c0.2,0.2,0.4,0.4,0.6,0.6c0.2,0.2,0.4,0.4,0.6,0.6c0.2,0.2,0.4,0.4,0.6,0.6c0.2,0.2,0.4,0.4,0.6,0.6
		c0.2,0.2,0.4,0.4,0.6,0.6c0.2,0.2,0.4,0.4,0.6,0.6c0.2,0.2,0.4,0.4,0.6,0.6c0.2,0.2,0.4,0.4,0.6,0.6c0.2,0.2,0.4,0.4,0.6,0.6
		c0.2,0.2,0.4,0.4,0.6,0.6c0.1,0.1,0.2,0.2,0.3,0.3v9.8v2.8v6.8h0.6v0.6h0.6v0.6h0.6v0.6h0.6V84h0.6v0.6h0.6v0.6h0.6v0.6h0.6v0.6
		h0.6V87H40v0.6h0.6v0.6h0.6v0.6h0.6v0.6h0.6v0.6H43v0.6h0.6v0.6h0.6v0.6h0.6v0.6h0.6v0.6H46v0.6h0.6v0.6h0.6v0.6h0.6v0.6h0.6v0.6
		h0.6v0.6h0.6v0.6h0.6V98h0.6v0.6h0.6v0.6h0.6v0.6h0.6v0.6h0.6v0.6h0.6v0.6h0.6v0.6h0.6v0.6h0.6v0.6h0.6v0.6h0.6v0.6h0.6v0.6h0.6
		v0.6h0.6v0.6h0.6v0.6H60v0.6h0.6v0.6h0.6v0.4c26-3.2,46.3-24.6,47.8-51c-0.1-0.1-0.3-0.3-0.4-0.4C108.4,57,108.2,56.8,108,56.6z"/>
	<g id="icon_1_">
		<rect x="33.9" y="74.7" class="st2" width="40" height="6.8"/>
		<linearGradient id="SVGID_1_" gradientUnits="userSpaceOnUse" x1="21.1713" y1="46.5945" x2="86.6262" y2="46.5945">
			<stop  offset="0.5" style="stop-color:#FFFFFF"/>
			<stop  offset="0.5" style="stop-color:#F2F2F2"/>
		</linearGradient>
		<path class="st3" d="M86.3,39C83.5,22.2,66,31.2,66,31.2c0.1-5.7-5.9-10-12.1-10h0c-6.2,0-12.2,4.3-12.1,10c0,0-17.5-9-20.2,7.8
			c-2.3,14.5,7.6,17.5,12.4,18v14.9h40V57.1C78.7,56.5,88.6,53.5,86.3,39z"/>
		<rect x="33.9" y="71.9" class="st4" width="40" height="2.8"/>
	</g>
</g>
</svg>
